<mxfile host="Electron" modified="2023-10-30T14:06:07.125Z" agent="Mozilla/5.0 (Windows NT 10.0; Win64; x64) AppleWebKit/537.36 (KHTML, like Gecko) draw.io/21.6.5 Chrome/114.0.5735.243 Electron/25.3.1 Safari/537.36" etag="BmAKmd_f4Xso6U3AqFux" version="21.6.5" type="device">
  <diagram name="第 1 页" id="DJ53w_wKZlQRNOZwwcWK">
    <mxGraphModel dx="1235" dy="740" grid="0" gridSize="10" guides="1" tooltips="1" connect="1" arrows="1" fold="1" page="1" pageScale="1" pageWidth="2339" pageHeight="3300" math="0" shadow="0">
      <root>
        <mxCell id="0" />
        <mxCell id="1" parent="0" />
        <mxCell id="ihP-amTON-OhSpJ7fVQ6-3" value="" style="edgeStyle=orthogonalEdgeStyle;rounded=0;orthogonalLoop=1;jettySize=auto;html=1;fillColor=#f8cecc;strokeColor=#b85450;strokeWidth=2;" edge="1" parent="1" source="ihP-amTON-OhSpJ7fVQ6-1" target="ihP-amTON-OhSpJ7fVQ6-2">
          <mxGeometry relative="1" as="geometry" />
        </mxCell>
        <mxCell id="ihP-amTON-OhSpJ7fVQ6-1" value="代码构建域" style="rounded=0;whiteSpace=wrap;html=1;fillColor=#ffe6cc;strokeColor=#d79b00;" vertex="1" parent="1">
          <mxGeometry x="92" y="331" width="129" height="210" as="geometry" />
        </mxCell>
        <mxCell id="ihP-amTON-OhSpJ7fVQ6-6" value="" style="edgeStyle=orthogonalEdgeStyle;rounded=0;orthogonalLoop=1;jettySize=auto;html=1;fillColor=#f8cecc;strokeColor=#b85450;strokeWidth=2;" edge="1" parent="1" source="ihP-amTON-OhSpJ7fVQ6-2" target="ihP-amTON-OhSpJ7fVQ6-5">
          <mxGeometry relative="1" as="geometry" />
        </mxCell>
        <mxCell id="ihP-amTON-OhSpJ7fVQ6-2" value="部署域" style="rounded=0;whiteSpace=wrap;html=1;fillColor=#ffe6cc;strokeColor=#d79b00;" vertex="1" parent="1">
          <mxGeometry x="328" y="331" width="121" height="211" as="geometry" />
        </mxCell>
        <mxCell id="ihP-amTON-OhSpJ7fVQ6-4" value="开发产物：&lt;br&gt;jar包" style="text;html=1;align=center;verticalAlign=middle;resizable=0;points=[];autosize=1;strokeColor=none;fillColor=none;" vertex="1" parent="1">
          <mxGeometry x="236" y="385" width="78" height="41" as="geometry" />
        </mxCell>
        <mxCell id="ihP-amTON-OhSpJ7fVQ6-16" style="edgeStyle=orthogonalEdgeStyle;rounded=0;orthogonalLoop=1;jettySize=auto;html=1;exitX=0.25;exitY=0;exitDx=0;exitDy=0;entryX=1;entryY=0.5;entryDx=0;entryDy=0;fillColor=#f8cecc;strokeColor=#b85450;strokeWidth=2;" edge="1" parent="1" source="ihP-amTON-OhSpJ7fVQ6-5" target="ihP-amTON-OhSpJ7fVQ6-7">
          <mxGeometry relative="1" as="geometry">
            <Array as="points">
              <mxPoint x="603" y="331" />
              <mxPoint x="603" y="150" />
            </Array>
          </mxGeometry>
        </mxCell>
        <mxCell id="ihP-amTON-OhSpJ7fVQ6-20" value="" style="edgeStyle=orthogonalEdgeStyle;rounded=0;orthogonalLoop=1;jettySize=auto;html=1;" edge="1" parent="1" source="ihP-amTON-OhSpJ7fVQ6-5" target="ihP-amTON-OhSpJ7fVQ6-19">
          <mxGeometry relative="1" as="geometry" />
        </mxCell>
        <mxCell id="ihP-amTON-OhSpJ7fVQ6-5" value="测试域" style="rounded=0;whiteSpace=wrap;html=1;fillColor=#ffe6cc;strokeColor=#d79b00;" vertex="1" parent="1">
          <mxGeometry x="542" y="331" width="121" height="211" as="geometry" />
        </mxCell>
        <mxCell id="ihP-amTON-OhSpJ7fVQ6-8" style="edgeStyle=orthogonalEdgeStyle;rounded=0;orthogonalLoop=1;jettySize=auto;html=1;fillColor=#f8cecc;strokeColor=#b85450;strokeWidth=2;" edge="1" parent="1" source="ihP-amTON-OhSpJ7fVQ6-7" target="ihP-amTON-OhSpJ7fVQ6-1">
          <mxGeometry relative="1" as="geometry" />
        </mxCell>
        <mxCell id="ihP-amTON-OhSpJ7fVQ6-22" style="rounded=0;orthogonalLoop=1;jettySize=auto;html=1;entryX=0.007;entryY=0.068;entryDx=0;entryDy=0;entryPerimeter=0;exitX=0.75;exitY=1;exitDx=0;exitDy=0;shape=flexArrow;fillColor=#dae8fc;strokeColor=#6c8ebf;" edge="1" parent="1" source="ihP-amTON-OhSpJ7fVQ6-7" target="ihP-amTON-OhSpJ7fVQ6-5">
          <mxGeometry relative="1" as="geometry" />
        </mxCell>
        <mxCell id="ihP-amTON-OhSpJ7fVQ6-25" style="edgeStyle=orthogonalEdgeStyle;rounded=0;orthogonalLoop=1;jettySize=auto;html=1;exitX=1;exitY=0.25;exitDx=0;exitDy=0;" edge="1" parent="1" source="ihP-amTON-OhSpJ7fVQ6-7" target="ihP-amTON-OhSpJ7fVQ6-19">
          <mxGeometry relative="1" as="geometry" />
        </mxCell>
        <mxCell id="ihP-amTON-OhSpJ7fVQ6-26" value="辅助定位测试问题" style="edgeLabel;html=1;align=center;verticalAlign=middle;resizable=0;points=[];" vertex="1" connectable="0" parent="ihP-amTON-OhSpJ7fVQ6-25">
          <mxGeometry x="-0.0902" y="-2" relative="1" as="geometry">
            <mxPoint as="offset" />
          </mxGeometry>
        </mxCell>
        <mxCell id="ihP-amTON-OhSpJ7fVQ6-7" value="开发域" style="rounded=0;whiteSpace=wrap;html=1;fillColor=#ffe6cc;strokeColor=#d79b00;" vertex="1" parent="1">
          <mxGeometry x="324" y="45" width="129" height="210" as="geometry" />
        </mxCell>
        <mxCell id="ihP-amTON-OhSpJ7fVQ6-9" value="开发任务，指导开发" style="text;html=1;align=center;verticalAlign=middle;resizable=0;points=[];autosize=1;strokeColor=none;fillColor=none;" vertex="1" parent="1">
          <mxGeometry x="78" y="122" width="126" height="26" as="geometry" />
        </mxCell>
        <mxCell id="ihP-amTON-OhSpJ7fVQ6-11" value="需求，设计：&lt;br&gt;指导测试" style="text;html=1;align=center;verticalAlign=middle;resizable=0;points=[];autosize=1;strokeColor=none;fillColor=none;" vertex="1" parent="1">
          <mxGeometry x="370" y="273" width="90" height="41" as="geometry" />
        </mxCell>
        <mxCell id="ihP-amTON-OhSpJ7fVQ6-13" value="提出测试意见：&lt;br&gt;辅助需求，设计" style="text;html=1;align=center;verticalAlign=middle;resizable=0;points=[];autosize=1;strokeColor=none;fillColor=none;" vertex="1" parent="1">
          <mxGeometry x="486" y="227" width="102" height="41" as="geometry" />
        </mxCell>
        <mxCell id="ihP-amTON-OhSpJ7fVQ6-18" value="提出缺陷，回归开发" style="text;html=1;align=center;verticalAlign=middle;resizable=0;points=[];autosize=1;strokeColor=none;fillColor=none;" vertex="1" parent="1">
          <mxGeometry x="519" y="119" width="126" height="26" as="geometry" />
        </mxCell>
        <mxCell id="ihP-amTON-OhSpJ7fVQ6-19" value="问题展示，辅助定位" style="rounded=0;whiteSpace=wrap;html=1;fillColor=#ffe6cc;strokeColor=#d79b00;" vertex="1" parent="1">
          <mxGeometry x="774" y="330" width="121" height="211" as="geometry" />
        </mxCell>
        <mxCell id="ihP-amTON-OhSpJ7fVQ6-21" value="部署产物：&lt;br&gt;部署好的环境" style="text;html=1;align=center;verticalAlign=middle;resizable=0;points=[];autosize=1;strokeColor=none;fillColor=none;" vertex="1" parent="1">
          <mxGeometry x="452" y="390" width="90" height="41" as="geometry" />
        </mxCell>
        <mxCell id="ihP-amTON-OhSpJ7fVQ6-23" style="rounded=0;orthogonalLoop=1;jettySize=auto;html=1;shape=flexArrow;exitX=0.25;exitY=0;exitDx=0;exitDy=0;fillColor=#dae8fc;strokeColor=#6c8ebf;" edge="1" parent="1" source="ihP-amTON-OhSpJ7fVQ6-5">
          <mxGeometry relative="1" as="geometry">
            <mxPoint x="587" y="330" as="sourcePoint" />
            <mxPoint x="449" y="242" as="targetPoint" />
          </mxGeometry>
        </mxCell>
        <mxCell id="ihP-amTON-OhSpJ7fVQ6-24" value="部分测试结果：&lt;br&gt;系统缺陷" style="text;html=1;align=center;verticalAlign=middle;resizable=0;points=[];autosize=1;strokeColor=none;fillColor=none;" vertex="1" parent="1">
          <mxGeometry x="668" y="395.5" width="102" height="41" as="geometry" />
        </mxCell>
      </root>
    </mxGraphModel>
  </diagram>
</mxfile>
